<?xml version="1.0" encoding="utf-8"?>
<!-- Generator: Adobe Illustrator 25.0.0, SVG Export Plug-In . SVG Version: 6.00 Build 0)  -->
<svg version="1.1" id="Layer_1" xmlns="http://www.w3.org/2000/svg" xmlns:xlink="http://www.w3.org/1999/xlink" x="0px" y="0px"
	 viewBox="0 0 500 119.4" style="enable-background:new 0 0 500 119.4;" xml:space="preserve">
<style type="text/css">
	.st0{fill:#A31741;}
	.st1{fill:#E61B5C;}
	.st2{fill:#FFFFFF;}
</style>
<g>
	<polygon class="st0" points="252.4,5.6 208.5,49.4 217.3,49.4 252.4,14.3 287.5,49.4 296.3,49.4 	"/>
	<polygon class="st0" points="243.6,49.4 252.4,49.4 261.2,49.4 252.4,40.7 	"/>
	<polygon class="st0" points="226.1,49.4 234.8,49.4 252.4,31.9 269.9,49.4 278.7,49.4 252.4,23.1 	"/>
</g>
<g>
	<polygon class="st1" points="208.5,49.4 217.3,49.4 208.5,40.7 	"/>
	<polygon class="st1" points="208.5,31.9 226.1,49.4 234.8,49.4 208.5,23.1 	"/>
	<polygon class="st1" points="208.5,5.6 208.5,14.3 243.6,49.4 252.4,49.4 	"/>
</g>
<g>
	<polygon class="st1" points="296.3,49.4 296.3,40.7 287.5,49.4 	"/>
	<polygon class="st1" points="278.7,49.4 296.3,31.9 296.3,23.1 269.9,49.4 	"/>
	<polygon class="st1" points="252.4,49.4 261.2,49.4 296.3,14.3 296.3,5.6 	"/>
</g>
<g>
	<path class="st2" d="M9.2,64.2c-0.3-0.6-0.3-1.1,0-1.6c0.2-0.4,0.6-0.7,1.2-0.7h12.6c0.5,0,1,0.2,1.5,0.5c0.5,0.3,0.8,0.7,0.9,1.2
		l8.8,25.7c0.2,0.5,0.4,0.8,0.8,0.8c0.4,0,0.7-0.3,0.8-0.8l8.5-25.6c0.2-0.5,0.5-0.9,0.9-1.3c0.5-0.3,1-0.5,1.5-0.5h10.3
		c0.6,0,1.1,0.2,1.5,0.5c0.5,0.3,0.8,0.8,0.9,1.3l8.5,25.8c0.2,0.5,0.4,0.8,0.8,0.8c0.4,0,0.7-0.3,0.9-0.8l8.9-25.9
		c0.2-0.5,0.5-0.9,1-1.2c0.5-0.3,1-0.5,1.5-0.5h12.5c0.6,0,1,0.2,1.2,0.7c0.2,0.4,0.2,0.9,0.1,1.4l-18.7,52.7
		c-0.2,0.5-0.5,0.9-1,1.3c-0.5,0.3-1,0.5-1.5,0.5h-10c-0.6,0-1.1-0.2-1.5-0.5c-0.5-0.3-0.8-0.8-0.9-1.3L52.6,91
		c-0.2-0.5-0.4-0.8-0.8-0.8c-0.4,0-0.7,0.3-0.8,0.8l-8.5,25.7c-0.2,0.5-0.5,0.9-0.9,1.3c-0.5,0.3-1,0.5-1.5,0.5h-10
		c-0.6,0-1.1-0.2-1.5-0.6s-0.7-0.8-0.8-1.2L9.2,64.2z"/>
	<path class="st2" d="M116.6,78.1v3.2c0,0.5,0.2,1,0.5,1.3c0.4,0.4,0.8,0.5,1.3,0.5h20.9c0.5,0,1,0.2,1.3,0.5
		c0.4,0.4,0.5,0.8,0.5,1.3v10.7c0,0.5-0.2,1-0.5,1.3c-0.4,0.4-0.8,0.5-1.3,0.5h-20.9c-0.5,0-1,0.2-1.3,0.5c-0.4,0.4-0.5,0.8-0.5,1.3
		v2.9c0,0.5,0.2,1,0.5,1.3c0.4,0.4,0.8,0.5,1.3,0.5h24c0.5,0,1,0.2,1.3,0.5c0.4,0.4,0.5,0.8,0.5,1.3v10.7c0,0.5-0.2,1-0.5,1.3
		c-0.4,0.4-0.8,0.5-1.3,0.5h-39.3c-0.5,0-1-0.2-1.3-0.5c-0.4-0.4-0.5-0.8-0.5-1.3V63.9c0-0.5,0.2-1,0.5-1.3c0.4-0.4,0.8-0.5,1.3-0.5
		h39.3c0.5,0,1,0.2,1.3,0.5c0.4,0.4,0.5,0.8,0.5,1.3v10.5c0,0.5-0.2,1-0.5,1.3c-0.4,0.4-0.8,0.5-1.3,0.5h-24c-0.5,0-1,0.2-1.3,0.5
		C116.8,77.1,116.6,77.5,116.6,78.1z"/>
	<path class="st2" d="M192.8,89.4c0.8,0.5,1.6,1,2.5,1.7c0.8,0.7,1.6,1.5,2.3,2.5c0.7,1,1.3,2.1,1.7,3.4c0.4,1.3,0.7,2.8,0.7,4.4
		c0,3.3-0.5,6.1-1.6,8.3c-1.1,2.2-2.5,3.9-4.3,5.2c-1.8,1.3-3.9,2.2-6.2,2.8c-2.3,0.5-4.8,0.8-7.4,0.8H156c-0.5,0-1-0.2-1.3-0.5
		c-0.4-0.4-0.5-0.8-0.5-1.3V63.9c0-0.5,0.2-1,0.5-1.3c0.4-0.4,0.8-0.5,1.3-0.5h23.3c2.5,0,4.8,0.3,7.1,0.8c2.3,0.5,4.3,1.4,6,2.7
		c1.7,1.2,3.1,2.8,4.2,4.8c1.1,2,1.6,4.4,1.6,7.3c0,2.3-0.6,4.3-1.7,6s-2.4,3-3.7,4C191.7,88.3,191.8,88.9,192.8,89.4z M171.3,83.5
		h7.2c1,0,1.9-0.4,2.5-1.2s0.9-1.7,0.9-2.7c0-0.9-0.4-1.7-1.1-2.4c-0.7-0.7-1.5-1-2.1-1h-7.3c-0.5,0-1,0.2-1.3,0.5
		c-0.4,0.4-0.5,0.8-0.5,1.3v3.6c0,0.5,0.2,1,0.5,1.3C170.3,83.3,170.8,83.5,171.3,83.5z M179.4,96.2h-8.1c-0.5,0-1,0.2-1.3,0.5
		c-0.4,0.4-0.5,0.8-0.5,1.3v4.4c0,0.5,0.2,1,0.5,1.3c0.4,0.4,0.8,0.5,1.3,0.5h8.6c0.9,0,1.8-0.4,2.6-1.2c0.8-0.8,1.2-1.7,1.2-2.7
		c0-0.9-0.4-1.9-1.2-2.8C181.8,96.7,180.7,96.2,179.4,96.2z"/>
	<path class="st2" d="M222.3,118.5h-11.6c-0.6,0-1-0.2-1.3-0.5s-0.5-0.8-0.5-1.3V63.9c0-0.5,0.2-1,0.5-1.3c0.3-0.4,0.8-0.5,1.3-0.5
		h11.6c0.5,0,0.9,0.2,1.3,0.5c0.4,0.4,0.5,0.8,0.5,1.3v52.7c0,0.5-0.2,1-0.5,1.3S222.8,118.5,222.3,118.5z"/>
	<path class="st2" d="M276.7,106.2v10.5c0,0.5-0.2,1-0.5,1.3c-0.4,0.4-0.8,0.5-1.3,0.5h-38.5c-0.6,0-1-0.2-1.4-0.5
		c-0.3-0.4-0.5-0.8-0.5-1.3V63.9c0-0.5,0.2-1,0.5-1.3c0.3-0.4,0.8-0.5,1.4-0.5h11.6c0.5,0,1,0.2,1.3,0.5c0.4,0.4,0.5,0.8,0.5,1.3
		v38.6c0,0.5,0.2,1,0.5,1.3c0.3,0.4,0.8,0.5,1.4,0.5h23.2c0.5,0,1,0.2,1.3,0.5C276.5,105.2,276.7,105.6,276.7,106.2z"/>
	<path class="st2" d="M324.2,106.2v10.5c0,0.5-0.2,1-0.5,1.3c-0.4,0.4-0.8,0.5-1.3,0.5h-38.5c-0.6,0-1-0.2-1.4-0.5
		c-0.3-0.4-0.5-0.8-0.5-1.3V63.9c0-0.5,0.2-1,0.5-1.3c0.3-0.4,0.8-0.5,1.4-0.5h11.6c0.5,0,1,0.2,1.3,0.5c0.4,0.4,0.5,0.8,0.5,1.3
		v38.6c0,0.5,0.2,1,0.5,1.3c0.3,0.4,0.8,0.5,1.4,0.5h23.2c0.5,0,1,0.2,1.3,0.5C324,105.2,324.2,105.6,324.2,106.2z"/>
	<path class="st2" d="M343.5,118.5h-11.6c-0.6,0-1-0.2-1.3-0.5s-0.5-0.8-0.5-1.3V63.9c0-0.5,0.2-1,0.5-1.3c0.3-0.4,0.8-0.5,1.3-0.5
		h11.6c0.5,0,0.9,0.2,1.3,0.5c0.4,0.4,0.5,0.8,0.5,1.3v52.7c0,0.5-0.2,1-0.5,1.3S344.1,118.5,343.5,118.5z"/>
	<path class="st2" d="M355.7,63.9c0-0.5,0.2-1,0.5-1.3c0.4-0.4,0.8-0.5,1.3-0.5h11.6c0.5,0,0.9,0.2,1.3,0.5c0.4,0.4,0.5,0.8,0.5,1.3
		v31.3c0,2,0.3,3.7,1,5c0.6,1.3,1.4,2.3,2.4,3.1c1,0.7,2,1.3,3.1,1.6c1.1,0.3,2.1,0.5,2.9,0.5s1.9-0.2,2.9-0.5
		c1.1-0.3,2.1-0.8,3-1.6c0.9-0.7,1.7-1.8,2.4-3.1s1-3,1-5V63.9c0-0.5,0.2-1,0.5-1.3c0.4-0.4,0.8-0.5,1.3-0.5h11.6
		c0.5,0,0.9,0.2,1.3,0.5c0.4,0.4,0.5,0.8,0.5,1.3v31.3c0,3.7-0.6,7-1.7,10c-1.2,3-2.8,5.5-5,7.6c-2.2,2.1-4.8,3.7-7.8,4.9
		s-6.4,1.7-10.1,1.7c-3.7,0-7.1-0.6-10.1-1.7s-5.6-2.8-7.8-4.9c-2.2-2.1-3.8-4.7-5-7.6c-1.2-3-1.8-6.3-1.8-10V63.9z"/>
	<path class="st2" d="M479.6,63.9v52.7c0,0.5-0.2,1-0.5,1.3s-0.8,0.5-1.3,0.5h-11.6c-0.5,0-0.9-0.2-1.3-0.5s-0.5-0.8-0.5-1.3V91.8
		c0-0.5-0.2-0.8-0.7-0.8c-0.5,0-0.9,0.1-1.2,0.5l-13,20.9c-0.3,0.4-0.7,0.6-1.2,0.6c-0.6,0-1-0.2-1.3-0.6l-13-20.9
		c-0.3-0.4-0.6-0.6-1.1-0.5c-0.5,0.1-0.7,0.3-0.7,0.8v24.9c0,0.5-0.2,1-0.5,1.3s-0.8,0.5-1.3,0.5h-11.6c-0.5,0-0.9-0.2-1.3-0.5
		s-0.5-0.8-0.5-1.3V63.9c0-0.5,0.2-1,0.5-1.3c0.4-0.4,0.8-0.5,1.3-0.5h10.8c0.5,0,1,0.2,1.6,0.5c0.6,0.3,1,0.7,1.2,1.1l14.9,21.8
		c0.3,0.4,0.7,0.6,1.1,0.6c0.4,0,0.7-0.2,1-0.6L464,63.6c0.3-0.4,0.7-0.8,1.3-1.1c0.6-0.3,1.1-0.5,1.6-0.5h10.8
		c0.5,0,0.9,0.2,1.3,0.5C479.4,63,479.6,63.4,479.6,63.9z"/>
</g>
</svg>
